# AST/ASF file generated using VICON BodyLanguage
# -----------------------------------------------
:version 1.10
:name VICON
:units
  mass 1.0
  length 0.45
  angle deg
:documentation
   .ast/.asf automatically generated from VICON data using
   VICON BodyBuilder and BodyLanguage model FoxedUp or BRILLIANT.MOD
:root
   order TX TY TZ RX RY RZ
   axis XYZ
   position 0 0 0  
   orientation 0 0 0 
:bonedata
  begin
     id 1 
     name lhipjoint
     direction 0.602128 -0.715006 0.355257 
     length 2.21237 
     axis 0 0 0  XYZ
  end
  begin
     id 2 
     name lfemur
     direction 0.34202 -0.939693 0  
     length 6.71649  
     axis 0 0 20  XYZ
    dof rx ry rz
    limits (-160.0 20.0)
           (-70.0 70.0)
           (-60.0 70.0)
  end
  begin
     id 3 
     name ltibia
     direction 0.34202 -0.939693 0   
     length 6.97123   
     axis 0 0 20   XYZ
    dof rx
    limits (-10.0 170.0)
  end
  begin
     id 4 
     name lfoot
     direction 0.0655697 -0.180151 0.981451   
     length 1.80924   
     axis -90 7.62852e-016 20   XYZ
    dof rx rz
    limits (-45.0 90.0)
           (-70.0 20.0)
  end
  begin
     id 5 
     name ltoes
     direction 1.53545e-011 -4.21827e-011 1   
     length 0.916331   
     axis -90 7.62852e-016 20   XYZ
    dof rx
    limits (-90.0 20.0)
  end
  begin
     id 6 
     name rhipjoint
     direction -0.625414 -0.698792 0.347201   
     length 2.2637  
     axis 0 0 0  XYZ 
  end
  begin
     id 7 
     name rfemur
     direction -0.34202 -0.939693 0   
     length 7.07595   
     axis 0 0 -20   XYZ
    dof rx ry rz
    limits (-160.0 20.0)
           (-70.0 70.0)
           (-70.0 60.0)
  end
  begin
     id 8 
     name rtibia
     direction -0.34202 -0.939693 0   
     length 7.22924   
     axis 0 0 -20   XYZ
    dof rx
    limits (-10.0 170.0)
 end
 begin
     id 9 
     name rfoot
     direction -0.0766747 -0.210662 0.974547   
     length 1.98482  
     axis -90 -7.62852e-016 -20   XYZ
    dof rx rz
    limits (-45.0 90.0)
           (-20.0 70.0)
  end
  begin
     id 10 
     name rtoes
     direction -1.53532e-011 -4.21867e-011 1   
     length 0.999842   
     axis -90 -7.62852e-016 -20   XYZ
    dof rx
    limits (-90.0 20.0)
  end
  begin
     id 11 
     name lowerback
     direction -0.0224668 0.997354 -0.0691422   
     length 2.09945   
     axis 0 0 0   XYZ
    dof rx ry rz
    limits (-20.0 45.0)
           (-30.0 30.0)
           (-30.0 30.0)
  end
  begin
     id 12 
     name upperback
     direction 0.0134698 0.998451 -0.0539888   
     length 2.09758   
     axis 0 0 0   XYZ
    dof rx ry rz
    limits (-20.0 45.0)
           (-30.0 30.0)
           (-30.0 30.0)
  end
  begin
     id 13 
     name thorax
     direction 0.0241905 0.99948 -0.0213333   
     length 2.10428   
     axis 0 0 0   XYZ
    dof rx ry rz
    limits (-20.0 45.0)
           (-30.0 30.0)
           (-30.0 30.0)
  end
  begin
     id 14 
     name lowerneck
     direction -0.00866847 0.995978 0.0891737   
     length 1.3959   
     axis 0 0 0   XYZ
    dof rx ry rz
    limits (-20.0 45.0)
           (-30.0 30.0)
           (-30.0 30.0)
  end
  begin
     id 15 
     name upperneck
     direction 0.0680679 0.992203 0.104404   
     length 1.39452   
     axis 0 0 0   XYZ
    dof rx ry rz
    limits (-20.0 45.0)
           (-30.0 30.0)
           (-30.0 30.0)
  end
  begin
     id 16
     name head
     direction 0.0242216 0.999358 0.0264054  
     length 1.40433  
     axis 0 0 0   XYZ
    dof rx ry rz
    limits (-20.0 45.0)
           (-30.0 30.0)
           (-30.0 30.0)
  end
  begin
     id 17 
     name lclavicle
     direction 0.929368 0.362991 -0.0671771  
     length 3.04887  
     axis 0 0 0   XYZ
    dof ry rz
    limits (-20.0 10.0)
           (0.0 20.0)
  end
  begin
     id 18 
     name lhumerus
     direction 1 -4.48967e-011 -7.13741e-028   
     length 4.77195   
     axis -180 -30 -90   XYZ
    dof rx ry rz
    limits (-60.0 90.0)
           (-90.0 90.0)
           (-90.0 90.0)
  end
  begin
     id 19
     name lradius
     direction 1 -4.48977e-011 3.60404e-027   
     length 2.98444   
     axis -180 -30 -90   XYZ
    dof rx
    limits (-10.0 170.0)
  end
  begin
     id 20
     name lwrist
     direction 1 -4.48997e-011 7.54877e-027   
     length 1.49222   
     axis -7.18178e-015 90 90   XYZ
    dof ry
    limits (-180.0 0.0)
 end
  begin
     id 21 
     name lhand
     direction 1 -4.489e-011 1.51105e-026   
     length 0.992285   
     axis -9.63605e-015 90 90   XYZ
    dof rx rz
    limits (-90.0 90.0)
           (-45.0 45.0)
  end
  begin
     id 22 
     name lfingers
     direction 1 -4.48998e-011 3.01948e-026   
     length 0.800006   
     axis -1.92718e-014 90 90   XYZ
    dof rx
    limits (0.0 90.0)
  end
  begin
     id 23
     name lthumb
     direction 0.707107 -6.34881e-011 0.707107   
     length 1.14865   
     axis -90 45 -3.53137e-014   XYZ
    dof rx rz
    limits (-45.0 45.0)
           (-45.0 45.0)
  end
  begin
     id 24 
     name rclavicle
     direction -0.945672 0.324529 0.0196374   
     length 3.4236  
     axis 0 0 0   XYZ 
    dof ry rz
    limits (-10.0 20.0)
           (-20.0 0.0)
  end
  begin
     id 25 
     name rhumerus
     direction -1 -4.4896e-011 1.02757e-029  
     length 4.62052   
     axis -180 30 90   XYZ
    dof rx ry rz
    limits (-90.0 60.0)
           (-90.0 90.0)
           (-90.0 90.0)
  end
  begin
     id 26 
     name rradius
     direction -1 -4.48982e-011 3.85962e-027   
     length 2.95332   
     axis -180 30 90   XYZ
    dof rx
    limits (-10.0 170.0)
  end
  begin
     id 27 
     name rwrist
     direction -1 -4.48961e-011 7.55118e-027   
     length 1.47666   
     axis -7.18178e-015 -90 -90   XYZ
    dof ry
    limits (-180.0 0.0)
  end
  begin
     id 28
     name rhand
     direction -1 -4.48984e-011 1.50994e-026   
     length 0.990956   
     axis -9.63605e-015 -90 -90   XYZ
    dof rx rz
    limits (-90.0 90.0)
           (-45.0 45.0)
  end
  begin
     id 29
     name rfingers
     direction -1 -4.4892e-011 3.02158e-026   
     length 0.798934   
     axis -1.92718e-014 -90 -90   XYZ
    dof rx
    limits (0.0 90.0)
  end
  begin
     id 30
     name rthumb
     direction -0.707107 -6.34916e-011 0.707107   
     length 1.14711   
     axis -90 -45 3.53137e-014   XYZ
    dof rx rz
    limits (-45.0 45.0)
           (-45.0 45.0)
  end
:hierarchy
  begin
    root lhipjoint rhipjoint lowerback
    lhipjoint lfemur
    lfemur ltibia
    ltibia lfoot
    lfoot ltoes
    rhipjoint rfemur
    rfemur rtibia
    rtibia rfoot
    rfoot rtoes
    lowerback upperback
    upperback thorax
    thorax lowerneck lclavicle rclavicle
    lowerneck upperneck
    upperneck head
    lclavicle lhumerus
    lhumerus lradius
    lradius lwrist
    lwrist lhand lthumb
    lhand lfingers
    rclavicle rhumerus
    rhumerus rradius
    rradius rwrist
    rwrist rhand rthumb
    rhand rfingers
  end

#!OML:ASF H:\ManfredObstacles\Project 1\Capture day 1\Session 1\Male.ASF
:FULLY-SPECIFIED
:DEGREES
219
root -9.46113 16.4521 22.0504 -170.887 -1.48921 -179.965
lowerback -8.86651 -3.80037 -3.43311
upperback 1.70865 -4.74155 0.82107
thorax 7.12726 -2.48271 2.06984
lowerneck 0.999024 -2.70317 -5.51881
upperneck -5.6724 -3.05496 10.0226
head -1.74992 -1.52367 4.36744
rclavicle -9.14409e-015 6.36111e-015
rhumerus -42.5226 -22.4505 -72.4058
rradius 27.1508
rwrist 31.1977
rhand 2.95446 -5.94412
rfingers 7.12502
rthumb 28.417 -33.8066
lclavicle -9.14409e-015 6.36111e-015
lhumerus -29.0861 10.6553 82.7029
lradius 21.0968
lwrist -29.3578
lhand -4.46592 10.6007
lfingers 7.12502
lthumb 21.3065 39.4494
rfemur -28.4557 -5.53277 26.9371
rtibia 29.396
rfoot -10.2811 11.499
rtoes 29.2553
lfemur -10.3446 -1.31102 -17.5492
ltibia 48.9043
lfoot 13.7993 1.26959
ltoes 18.1504
220
root -9.40081 16.4665 21.8699 -170.869 -0.677897 -179.673
lowerback -8.80295 -3.67268 -3.2918
upperback 1.73001 -4.5911 0.854299
thorax 7.0941 -2.40417 2.05346
lowerneck 1.13923 -2.69345 -5.55311
upperneck -5.79363 -3.0343 10.088
head -1.81652 -1.51783 4.40436
rclavicle 3.10104e-014 8.54774e-015
rhumerus -41.8312 -22.0212 -73.0241
rradius 27.4541
rwrist 30.7136
rhand 3.04485 -5.73186
rfingers 7.12502
rthumb 28.5034 -33.5799
lclavicle 3.10104e-014 8.54774e-015
lhumerus -29.2981 11.0063 82.4338
lradius 21.3779
lwrist -29.0949
lhand -4.92228 10.6232
lfingers 7.12502
lthumb 20.8681 39.5209
rfemur -27.5453 -5.4445 27.5441
rtibia 28.9263
rfoot -10.5658 12.2631
rtoes 29.5848
lfemur -13.2636 -0.615352 -17.1196
ltibia 53.6974
lfoot 14.5602 2.25821
ltoes 13.5057
221
root -9.34349 16.4745 21.6961 -170.783 0.151133 -179.523
lowerback -8.87563 -3.56691 -3.29791
upperback 1.81403 -4.44615 0.854552
thorax 7.21611 -2.33549 2.07283
lowerneck 1.19146 -2.69939 -5.55689
upperneck -5.96262 -3.02372 10.1503
head -1.88229 -1.51435 4.43313
rclavicle -5.84427e-014 -5.96354e-016
rhumerus -40.933 -21.7279 -73.6271
rradius 27.6489
rwrist 30.714
rhand 2.94146 -5.64122
rfingers 7.12502
rthumb 28.4046 -33.5058
lclavicle -5.84427e-014 -5.96354e-016
lhumerus -29.3792 11.2599 82.2376
lradius 21.6921
lwrist -28.7242
lhand -5.40666 10.6451
lfingers 7.12502
lthumb 20.4026 39.5932
rfemur -26.7666 -5.33692 27.9578
rtibia 28.5436
rfoot -10.8587 13.0119
rtoes 30.0804
lfemur -16.2876 -0.124251 -16.9593
ltibia 57.9745
lfoot 14.6815 2.82872
ltoes 13.0185
222
root -9.29435 16.475 21.5225 -170.893 1.03103 -179.529
lowerback -8.77451 -3.46711 -3.39311
upperback 1.91699 -4.30088 0.796719
thorax 7.26109 -2.26921 2.09069
lowerneck 1.2724 -2.68496 -5.37626
upperneck -6.00922 -3.01069 9.97992
head -1.91764 -1.5128 4.33879
rclavicle 2.18663e-015 -1.19271e-015
rhumerus -40.1897 -21.2207 -74.2365
rradius 27.9651
rwrist 30.6983
rhand 2.76109 -5.59054
rfingers 7.12502
rthumb 28.2322 -33.4837
lclavicle 2.18663e-015 -1.19271e-015
lhumerus -29.4736 11.5756 82.0711
lradius 21.9191
lwrist -28.2492
lhand -5.74041 10.8985
lfingers 7.12502
lthumb 20.0819 39.8807
rfemur -25.7583 -5.37017 28.1189
rtibia 28.1669
rfoot -11.136 13.9675
rtoes 30.7114
lfemur -18.89 0.0258105 -17.0748
ltibia 61.5652
lfoot 12.2721 3.62345
ltoes 14.1912
223
root -9.24882 16.4754 21.3499 -171.1 2.05176 -179.384
lowerback -8.50697 -3.3696 -3.39252
upperback 2.00169 -4.18234 0.8368
thorax 7.19303 -2.21341 2.16358
lowerneck 1.24118 -2.55933 -5.38727
upperneck -5.85588 -2.86176 9.92044
head -1.87481 -1.43815 4.31382
rclavicle -1.19271e-014 2.18663e-015
rhumerus -39.496 -20.4165 -74.8463
rradius 28.3269
rwrist 30.5009
rhand 2.48252 -5.76957
rfingers 7.12502
rthumb 27.966 -33.7065
lclavicle -1.19271e-014 2.18663e-015
lhumerus -29.5237 12.2089 81.8894
lradius 21.8861
lwrist -27.7753
lhand -5.99371 10.946
lfingers 7.12502
lthumb 19.8384 39.9535
rfemur -24.6055 -5.31362 28.3762
rtibia 27.7441
rfoot -11.3562 15.0096
rtoes 31.3531
lfemur -21.1338 0.0359924 -17.0503
ltibia 64.3925
lfoot 9.8979 4.30453
ltoes 15.8958
224
root -9.20259 16.4844 21.1822 -171.204 3.19631 -179.148
lowerback -8.26033 -3.17315 -3.25564
upperback 2.01494 -3.94419 0.855129
thorax 7.0401 -2.09052 2.15621
lowerneck 1.32594 -2.4562 -5.60488
upperneck -5.74221 -2.7312 10.142
head -1.86044 -1.37454 4.43576
rclavicle -1.2921e-015 -7.95139e-015
rhumerus -38.9739 -19.9612 -75.2907
rradius 28.6539
rwrist 30.4613
rhand 2.12917 -5.89955
rfingers 7.12502
rthumb 27.6281 -33.891
lclavicle -1.2921e-015 -7.95139e-015
lhumerus -29.6008 12.6899 81.6721
lradius 21.8266
lwrist -27.4765
lhand -6.06694 10.9114
lfingers 7.12502
lthumb 19.768 39.9262
rfemur -23.5629 -4.97785 28.6907
rtibia 27.3227
rfoot -11.5111 15.912
rtoes 32.3012
lfemur -23.4572 -0.108758 -16.8653
ltibia 66.4663
lfoot 8.37083 4.28004
ltoes 16.5903
225
root -9.15749 16.5037 21.0186 -171.339 4.34945 -179.121
lowerback -7.95105 -2.92467 -3.25469
upperback 2.0122 -3.61635 0.77007
thorax 6.83126 -1.92587 2.13104
lowerneck 1.39542 -2.44481 -5.76679
upperneck -5.61395 -2.72658 10.3218
head -1.82821 -1.37392 4.53225
rclavicle 4.58199e-014 -5.56597e-015
rhumerus -38.5976 -19.6168 -75.68
rradius 29.021
rwrist 30.2367
rhand 1.87066 -5.87716
rfingers 7.12502
rthumb 27.3809 -33.908
lclavicle 4.58199e-014 -5.56597e-015
lhumerus -29.7114 12.8535 81.4906
lradius 21.8432
lwrist -27.3885
lhand -5.92572 10.947
lfingers 7.12502
lthumb 19.9038 39.9478
rfemur -22.5162 -4.5545 28.7328
rtibia 26.9482
rfoot -11.6426 16.6954
rtoes 33.1579
lfemur -25.8014 -0.610013 -16.809
ltibia 67.8301
lfoot 7.80476 3.84114
ltoes 17.4782
226
root -9.11606 16.5103 20.8538 -171.518 5.61326 -179.228
lowerback -7.74856 -2.7076 -3.4323
upperback 2.09671 -3.30743 0.683444
thorax 6.78979 -1.78016 2.19131
lowerneck 1.28808 -2.4242 -5.83805
upperneck -5.42683 -2.71422 10.3542
head -1.74672 -1.36448 4.55127
rclavicle -3.91606e-014 3.97569e-016
rhumerus -38.0728 -19.0754 -76.1541
rradius 29.3231
rwrist 29.7262
rhand 1.73855 -5.94591
rfingers 7.12502
rthumb 27.2545 -33.9966
lclavicle -3.91606e-014 3.97569e-016
lhumerus -29.7348 12.9116 81.395
lradius 21.8487
lwrist -27.3603
lhand -5.62612 10.798
lfingers 7.12502
lthumb 20.1917 39.7686
rfemur -21.4912 -4.13153 28.5936
rtibia 26.6971
rfoot -11.8143 17.6295
rtoes 33.4866
lfemur -27.8229 -1.2329 -16.8817
ltibia 68.4622
lfoot 6.15308 3.52456
ltoes 15.0654
227
root -9.07744 16.4987 20.6887 -171.531 6.97864 -179.293
lowerback -7.87022 -2.46442 -3.49778
upperback 2.20089 -2.96019 0.552234
thorax 6.94263 -1.61204 2.13265
lowerneck 1.30556 -2.39729 -5.72935
upperneck -5.39215 -2.67858 10.3379
head -1.74301 -1.34894 4.52287
rclavicle 2.98177e-016 2.38542e-015
rhumerus -37.5602 -18.7378 -76.661
rradius 29.6128
rwrist 29.2531
rhand 1.67293 -5.98708
rfingers 7.12502
rthumb 27.1918 -34.0476
lclavicle 2.98177e-016 2.38542e-015
lhumerus -29.714 12.4827 81.3968
lradius 21.968
lwrist -27.0769
lhand -5.26382 10.7492
lfingers 7.12502
lthumb 20.5399 39.6826
rfemur -20.7376 -3.66043 28.4805
rtibia 26.641
rfoot -12.1055 18.7342
rtoes 33.4776
lfemur -29.6719 -1.89574 -16.8915
ltibia 68.3984
lfoot 4.43447 3.19862
ltoes 17.9792
228
root -9.04402 16.4827 20.5283 -171.409 8.31643 -179.365
lowerback -7.99178 -2.25873 -3.47251
upperback 2.20052 -2.67358 0.416124
thorax 6.98407 -1.46718 2.01262
lowerneck 1.35398 -2.31871 -5.62223
upperneck -5.37297 -2.57684 10.2768
head -1.7565 -1.30119 4.4791
rclavicle 3.47873e-015 -1.55052e-014
rhumerus -37.1854 -18.0097 -77.2805
rradius 30.0804
rwrist 28.4402
rhand 1.81205 -5.98832
rfingers 7.12502
rthumb 27.3248 -34.028
lclavicle 3.47873e-015 -1.55052e-014
lhumerus -29.8593 11.8568 81.4339
lradius 22.2522
lwrist -26.6746
lhand -5.06727 10.8596
lfingers 7.12502
lthumb 20.7288 39.7725
rfemur -20.2307 -3.20537 28.3311
rtibia 26.745
rfoot -12.4613 19.7945
rtoes 33.29
lfemur -31.5641 -2.7148 -16.8329
ltibia 67.7501
lfoot 2.9214 2.93225
ltoes 20.2822
229
root -9.01755 16.4674 20.3672 -171.43 9.72881 -179.459
lowerback -7.88093 -2.03915 -3.35677
upperback 2.19072 -2.38594 0.270885
thorax 6.87886 -1.31594 1.84074
lowerneck 1.48023 -2.19289 -5.62632
upperneck -5.39723 -2.41751 10.2133
head -1.80288 -1.226 4.45906
rclavicle 3.62782e-015 -1.98785e-015
rhumerus -36.9168 -16.7121 -78.0448
rradius 30.7131
rwrist 27.1068
rhand 2.12121 -6.47198
rfingers 7.12502
rthumb 27.6205 -34.4647
lclavicle 3.62782e-015 -1.98785e-015
lhumerus -30.0588 11.4914 81.3962
lradius 22.4376
lwrist -26.5775
lhand -5.16696 10.7535
lfingers 7.12502
lthumb 20.633 39.6769
rfemur -19.7268 -2.81073 28.1178
rtibia 27.1345
rfoot -13.0115 20.8291
rtoes 33.1814
lfemur -33.1721 -3.5474 -16.7441
ltibia 66.4608
lfoot 1.74886 3.16036
ltoes 13.4358
